<?xml version="1.0" standalone="no"?>
<!DOCTYPE svg PUBLIC "-//W3C//DTD SVG 20010904//EN"
 "http://www.w3.org/TR/2001/REC-SVG-20010904/DTD/svg10.dtd">
<svg version="1.0" xmlns="http://www.w3.org/2000/svg"
 width="1000.000000pt" height="1000.000000pt" viewBox="0 0 1000.000000 1000.000000"
 preserveAspectRatio="xMidYMid meet">
<metadata>
Created by potrace 1.11, written by Peter Selinger 2001-2013
</metadata>
<g transform="translate(0.000000,1000.000000) scale(0.100000,-0.100000)"
fill="#000000" stroke="none">
<path d="M4932 9552 l-63 -3 4 -332 3 -332 115 -1 c63 0 119 2 125 4 8 2 11
81 9 275 -1 150 -4 277 -5 282 -1 6 -2 12 -1 15 5 12 5 90 1 91 -28 3 -138 3
-188 1z"/>
<path d="M6517 9172 c-11 -15 -17 -29 -15 -32 1 -3 -7 -18 -19 -34 -13 -16
-23 -34 -23 -41 0 -7 -7 -18 -15 -25 -8 -7 -15 -21 -15 -30 0 -10 -4 -20 -8
-22 -8 -3 -191 -341 -195 -360 -1 -5 14 -19 33 -29 55 -31 169 -89 177 -90 5
-1 17 16 29 38 11 21 38 72 61 113 22 41 62 116 88 165 27 50 69 129 95 176
l47 86 -46 25 c-133 73 -161 88 -168 88 -4 0 -16 -12 -26 -28z"/>
<path d="M3449 9163 c-4 -9 -167 -103 -179 -103 -27 0 -14 -43 45 -146 36 -63
76 -133 89 -157 13 -23 48 -82 76 -132 29 -49 60 -103 68 -118 24 -47 31 -46
137 20 11 7 34 20 52 29 48 24 59 41 41 62 -8 9 -27 40 -43 67 -94 171 -266
469 -275 478 -4 5 -9 5 -11 0z"/>
<path d="M4827 8633 c-1 0 -47 -3 -102 -5 -55 -2 -105 -7 -110 -10 -6 -3 -26
-8 -45 -12 -67 -12 -75 -14 -144 -40 -144 -55 -271 -139 -383 -256 -40 -41
-73 -78 -73 -82 0 -4 -6 -13 -13 -20 -16 -18 -58 -84 -82 -133 -11 -22 -22
-42 -25 -45 -8 -8 -58 -161 -69 -215 -20 -90 -22 -161 -22 -1012 -1 -620 -4
-843 -13 -844 -6 0 -303 -1 -661 -1 -698 -1 -703 -1 -784 -53 -67 -42 -130
-131 -147 -208 -5 -23 -6 -2581 -1 -2607 1 -8 6 -21 10 -27 5 -7 6 -13 3 -13
-9 0 46 -94 62 -106 12 -8 7 -17 -26 -50 -47 -46 -53 -71 -52 -201 1 -162 9
-183 95 -230 28 -15 250 -16 2735 -15 1488 0 2716 1 2730 1 39 1 106 49 125
89 12 27 16 64 16 158 0 135 -8 163 -60 207 -30 25 -30 25 -12 49 30 37 59
100 66 138 8 42 8 2574 1 2610 -12 55 -60 132 -109 175 -97 85 -74 82 -852 83
-374 0 -692 1 -707 1 l-26 1 -1 853 c0 468 -3 870 -6 892 -12 94 -18 124 -37
190 -57 197 -187 390 -348 515 -25 19 -47 37 -50 40 -22 23 -220 119 -283 137
-73 21 -134 33 -192 39 -46 4 -405 11 -408 7z m-447 -731 c0 -31 58 -141 97
-182 20 -23 52 -48 70 -57 35 -16 169 -22 213 -8 68 20 138 105 175 212 21 59
35 65 35 16 0 -9 14 -44 31 -79 32 -64 92 -128 139 -146 43 -17 183 -14 223 5
37 18 105 88 123 128 32 70 44 102 44 122 1 21 1 21 12 3 6 -11 12 -27 13 -35
2 -18 19 -63 38 -100 18 -36 78 -96 116 -115 43 -23 162 -27 218 -8 23 7 54
25 68 38 15 14 30 22 34 19 3 -4 6 -401 7 -883 l0 -877 -188 0 c-103 0 -188 4
-188 8 0 5 -5 5 -12 1 -16 -10 -948 -11 -948 -1 0 5 -5 5 -12 1 -8 -5 -735
-10 -803 -5 -13 1 -15 1745 -2 1757 4 4 16 -2 27 -14 39 -42 79 -55 170 -55
96 0 133 13 188 69 36 38 91 145 94 186 2 28 18 28 18 0z m3233 -2132 c20 -13
46 -42 58 -63 l21 -39 0 -1271 c0 -809 -4 -1281 -10 -1298 -17 -43 -61 -87
-100 -100 -28 -9 -607 -12 -2577 -12 -1397 1 -2552 3 -2567 6 -14 3 -35 10
-47 16 -27 15 -70 73 -77 102 -3 13 -5 594 -5 1291 0 1179 1 1268 17 1300 21
41 61 77 94 84 14 3 30 7 35 8 6 2 1160 2 2566 2 l2555 -1 37 -25z m78 -3027
c2 -102 1 -124 -3 -129 -3 -3 -194 -5 -424 -5 -231 0 -1439 0 -2686 0 l-2268
1 0 85 0 85 2690 -2 2690 -2 1 -33z"/>
<path d="M4430 7162 c-316 -46 -494 -376 -360 -665 33 -73 116 -162 187 -202
184 -104 424 -70 566 80 47 49 94 127 108 180 l11 40 15 -43 c37 -110 128
-216 230 -267 144 -74 312 -67 461 19 50 29 152 138 152 163 0 7 4 13 9 13 13
0 53 146 55 203 8 222 -149 420 -376 473 -31 8 -168 10 -168 4 0 -3 -12 -7
-27 -8 -49 -4 -173 -74 -223 -125 -48 -48 -105 -143 -119 -196 -7 -24 -9 -22
-25 26 -20 61 -85 153 -142 201 -89 76 -241 121 -354 104z m165 -237 c53 -25
111 -89 129 -142 8 -23 13 -68 11 -102 -9 -200 -252 -304 -405 -173 -43 36
-79 97 -85 141 -2 14 -4 28 -5 31 -7 20 6 83 26 126 29 60 57 89 121 119 59
29 148 29 208 0z m905 2 c96 -44 160 -154 147 -252 -19 -133 -109 -217 -239
-222 -77 -3 -120 12 -173 58 -30 27 -68 80 -70 99 0 3 -3 10 -7 15 -3 6 -6 40
-6 76 0 145 113 252 258 245 30 -2 71 -10 90 -19z"/>
<path d="M4930 4581 c-122 -37 -205 -160 -189 -279 9 -68 29 -108 75 -156 157
-162 428 -58 442 170 7 101 -49 199 -139 245 -46 23 -144 33 -189 20z m112
-163 c44 -25 53 -41 53 -91 0 -41 -4 -53 -28 -73 -41 -35 -95 -33 -137 6 -26
25 -31 36 -29 67 4 50 18 73 54 89 38 17 60 17 87 2z"/>
<path d="M3542 7000 c-53 -24 -107 -80 -123 -128 -7 -21 -12 -63 -12 -94 1
-111 82 -202 200 -223 l30 -5 -1 60 c-1 33 3 60 7 60 4 0 4 8 0 18 -10 21 -9
254 1 270 4 7 3 12 -3 12 -5 0 -8 11 -5 25 4 22 1 25 -23 25 -16 0 -47 -9 -71
-20z"/>
<path d="M6277 6813 c1 -115 2 -220 2 -235 1 -24 4 -26 31 -21 143 22 230 160
191 301 -16 58 -92 136 -146 151 -86 23 -80 38 -78 -196z"/>
</g>
</svg>
